# xmcd
#
# Track frame offsets: 
#        150
#        17005
#        33747
#        50742
#        68470
#        86680
#
# Disc length: 1413 seconds
#
# Revision: 0
# Processed by: cddbd v1.5PL3 Copyright (c) Steve Scherf et al.
# Submitted via: ExactAudioCopy v0.95a3
#
DISCID=48058306
DTITLE=Funkmaster Flex - Funkmaster Flex EP
DYEAR=1995
DGENRE=Hip-Hop
TTITLE0=Six Million Ways To Die (Club Mix)
TTITLE1=Six Million Ways To Die (Vocal)
TTITLE2=Dope On Plastic (After Midnight Mix)
TTITLE3=Dope On Plastic (Before Midnight Mix)
TTITLE4=Clap Yo Hands
TTITLE5=Nuttin But Flavor (Vocal)
EXTD=
EXTT0=
EXTT1=
EXTT2=
EXTT3=
EXTT4=
EXTT5=
PLAYORDER=
